[
  {
    "pts_time": "8.333008",
    "duration_time": "0.033333"
  },
  {
    "pts_time": "8.366341",
    "duration_time": "0.033333"
  },
  {
    "pts_time": "8.399674",
    "duration_time": "0.033333"
  },
  {
    "pts_time": "8.433008",
    "duration_time": "0.033333"
  },
  {
    "pts_time": "8.466341",
    "duration_time": "0.033333"
  },
  {
    "pts_time": "8.499674",
    "duration_time": "0.033333"
  },
  {
    "pts_time": "8.533008",
    "duration_time": "0.033333"
  },
  {
    "pts_time": "8.566341",
    "duration_time": "0.033333"
  },
  {
    "pts_time": "8.599674",
    "duration_time": "0.033333"
  },
  {
    "pts_time": "8.633008",
    "duration_time": "0.033333"
  },
  {
    "pts_time": "8.666341",
    "duration_time": "0.033333"
  },
  {
    "pts_time": "8.699674",
    "duration_time": "0.033333"
  },
  {
    "pts_time": "8.733008",
    "duration_time": "0.033333"
  },
  {
    "pts_time": "8.766341",
    "duration_time": "0.033333"
  },
  {
    "pts_time": "8.799674",
    "duration_time": "0.033333"
  },
  {
    "pts_time": "8.833008",
    "duration_time": "0.033333"
  },
  {
    "pts_time": "8.866341",
    "duration_time": "0.033333"
  },
  {
    "pts_time": "8.899674",
    "duration_time": "0.033333"
  },
  {
    "pts_time": "8.933008",
    "duration_time": "0.033333"
  },
  {
    "pts_time": "8.966341",
    "duration_time": "0.033333"
  },
  {
    "pts_time": "8.999674",
    "duration_time": "0.033333"
  },
  {
    "pts_time": "9.033008",
    "duration_time": "0.033333"
  },
  {
    "pts_time": "9.066341",
    "duration_time": "0.033333"
  },
  {
    "pts_time": "9.099674",
    "duration_time": "0.033333"
  },
  {
    "pts_time": "9.133008",
    "duration_time": "0.033333"
  },
  {
    "pts_time": "9.166341",
    "duration_time": "0.033333"
  },
  {
    "pts_time": "9.199674",
    "duration_time": "0.033333"
  },
  {
    "pts_time": "9.233008",
    "duration_time": "0.033333"
  },
  {
    "pts_time": "9.266341",
    "duration_time": "0.033333"
  },
  {
    "pts_time": "9.299674",
    "duration_time": "0.033333"
  },
  {
    "pts_time": "9.333008",
    "duration_time": "0.033333"
  },
  {
    "pts_time": "9.366341",
    "duration_time": "0.033333"
  },
  {
    "pts_time": "9.399674",
    "duration_time": "0.033333"
  },
  {
    "pts_time": "9.433008",
    "duration_time": "0.033333"
  },
  {
    "pts_time": "9.466341",
    "duration_time": "0.033333"
  },
  {
    "pts_time": "9.499674",
    "duration_time": "0.033333"
  },
  {
    "pts_time": "9.533008",
    "duration_time": "0.033333"
  },
  {
    "pts_time": "9.566341",
    "duration_time": "0.033333"
  },
  {
    "pts_time": "9.599674",
    "duration_time": "0.033333"
  },
  {
    "pts_time": "9.633008",
    "duration_time": "0.033333"
  },
  {
    "pts_time": "9.666341",
    "duration_time": "0.033333"
  },
  {
    "pts_time": "9.699674",
    "duration_time": "0.033333"
  },
  {
    "pts_time": "9.733008",
    "duration_time": "0.033333"
  },
  {
    "pts_time": "9.766341",
    "duration_time": "0.033333"
  },
  {
    "pts_time": "9.799674",
    "duration_time": "0.033333"
  },
  {
    "pts_time": "9.833008",
    "duration_time": "0.033333"
  },
  {
    "pts_time": "9.866341",
    "duration_time": "0.033333"
  },
  {
    "pts_time": "9.899674",
    "duration_time": "0.033333"
  },
  {
    "pts_time": "9.933008",
    "duration_time": "0.033333"
  },
  {
    "pts_time": "9.966341",
    "duration_time": "0.033333"
  },
  {
    "pts_time": "9.999674",
    "duration_time": "0.033333"
  },
  {
    "pts_time": "10.033008",
    "duration_time": "0.033333"
  },
  {
    "pts_time": "10.066341",
    "duration_time": "0.033333"
  },
  {
    "pts_time": "10.099674",
    "duration_time": "0.033333"
  },
  {
    "pts_time": "10.133008",
    "duration_time": "0.033333"
  },
  {
    "pts_time": "10.166341",
    "duration_time": "0.033333"
  },
  {
    "pts_time": "10.199674",
    "duration_time": "0.033333"
  },
  {
    "pts_time": "10.233008",
    "duration_time": "0.033333"
  },
  {
    "pts_time": "10.266341",
    "duration_time": "0.033333"
  },
  {
    "pts_time": "10.299674",
    "duration_time": "0.033333"
  },
  {
    "pts_time": "10.333008",
    "duration_time": "0.033333"
  },
  {
    "pts_time": "10.366341",
    "duration_time": "0.033333"
  },
  {
    "pts_time": "10.399674",
    "duration_time": "0.033333"
  },
  {
    "pts_time": "10.433008",
    "duration_time": "0.033333"
  },
  {
    "pts_time": "10.466341",
    "duration_time": "0.033333"
  },
  {
    "pts_time": "10.499674",
    "duration_time": "0.033333"
  },
  {
    "pts_time": "10.533008",
    "duration_time": "0.033333"
  },
  {
    "pts_time": "10.566341",
    "duration_time": "0.033333"
  },
  {
    "pts_time": "10.599674",
    "duration_time": "0.033333"
  },
  {
    "pts_time": "10.633008",
    "duration_time": "0.033333"
  },
  {
    "pts_time": "10.666341",
    "duration_time": "0.033333"
  },
  {
    "pts_time": "10.699674",
    "duration_time": "0.033333"
  },
  {
    "pts_time": "10.733008",
    "duration_time": "0.033333"
  },
  {
    "pts_time": "10.766341",
    "duration_time": "0.033333"
  },
  {
    "pts_time": "10.799674",
    "duration_time": "0.033333"
  },
  {
    "pts_time": "10.833008",
    "duration_time": "0.033333"
  },
  {
    "pts_time": "10.866341",
    "duration_time": "0.033333"
  },
  {
    "pts_time": "10.899674",
    "duration_time": "0.033333"
  },
  {
    "pts_time": "10.933008",
    "duration_time": "0.033333"
  },
  {
    "pts_time": "10.966341",
    "duration_time": "0.033333"
  },
  {
    "pts_time": "10.999674",
    "duration_time": "0.033333"
  },
  {
    "pts_time": "11.033008",
    "duration_time": "0.033333"
  },
  {
    "pts_time": "11.066341",
    "duration_time": "0.033333"
  },
  {
    "pts_time": "11.099674",
    "duration_time": "0.033333"
  },
  {
    "pts_time": "11.133008",
    "duration_time": "0.033333"
  },
  {
    "pts_time": "11.166341",
    "duration_time": "0.033333"
  },
  {
    "pts_time": "11.199674",
    "duration_time": "0.033333"
  },
  {
    "pts_time": "11.233008",
    "duration_time": "0.033333"
  },
  {
    "pts_time": "11.266341",
    "duration_time": "0.033333"
  },
  {
    "pts_time": "11.299674",
    "duration_time": "0.033333"
  },
  {
    "pts_time": "11.333008",
    "duration_time": "0.033333"
  },
  {
    "pts_time": "11.366341",
    "duration_time": "0.033333"
  },
  {
    "pts_time": "11.399674",
    "duration_time": "0.033333"
  },
  {
    "pts_time": "11.433008",
    "duration_time": "0.033333"
  },
  {
    "pts_time": "11.466341",
    "duration_time": "0.033333"
  },
  {
    "pts_time": "11.499674",
    "duration_time": "0.033333"
  },
  {
    "pts_time": "11.533008",
    "duration_time": "0.033333"
  },
  {
    "pts_time": "11.566341",
    "duration_time": "0.033333"
  },
  {
    "pts_time": "11.599674",
    "duration_time": "0.033333"
  },
  {
    "pts_time": "11.633008",
    "duration_time": "0.033333"
  },
  {
    "pts_time": "11.666341",
    "duration_time": "0.033333"
  },
  {
    "pts_time": "11.699674",
    "duration_time": "0.033333"
  },
  {
    "pts_time": "11.733008",
    "duration_time": "0.033333"
  },
  {
    "pts_time": "11.766341",
    "duration_time": "0.033333"
  },
  {
    "pts_time": "11.799674",
    "duration_time": "0.033333"
  },
  {
    "pts_time": "11.833008",
    "duration_time": "0.033333"
  },
  {
    "pts_time": "11.866341",
    "duration_time": "0.033333"
  },
  {
    "pts_time": "11.899674",
    "duration_time": "0.033333"
  },
  {
    "pts_time": "11.933008",
    "duration_time": "0.033333"
  },
  {
    "pts_time": "11.966341",
    "duration_time": "0.033333"
  },
  {
    "pts_time": "11.999674",
    "duration_time": "0.033333"
  },
  {
    "pts_time": "12.033008",
    "duration_time": "0.033333"
  },
  {
    "pts_time": "12.066341",
    "duration_time": "0.033333"
  },
  {
    "pts_time": "12.099674",
    "duration_time": "0.033333"
  },
  {
    "pts_time": "12.133008",
    "duration_time": "0.033333"
  },
  {
    "pts_time": "12.166341",
    "duration_time": "0.033333"
  },
  {
    "pts_time": "12.199674",
    "duration_time": "0.033333"
  },
  {
    "pts_time": "12.233008",
    "duration_time": "0.033333"
  },
  {
    "pts_time": "12.266341",
    "duration_time": "0.033333"
  },
  {
    "pts_time": "12.299674",
    "duration_time": "0.033333"
  },
  {
    "pts_time": "12.333008",
    "duration_time": "0.033333"
  },
  {
    "pts_time": "12.366341",
    "duration_time": "0.033333"
  },
  {
    "pts_time": "12.399674",
    "duration_time": "0.033333"
  },
  {
    "pts_time": "12.433008",
    "duration_time": "0.033333"
  },
  {
    "pts_time": "12.466341",
    "duration_time": "0.033333"
  },
  {
    "pts_time": "12.499674",
    "duration_time": "0.033333"
  },
  {
    "pts_time": "12.533008",
    "duration_time": "0.033333"
  },
  {
    "pts_time": "12.566341",
    "duration_time": "0.033333"
  },
  {
    "pts_time": "12.599674",
    "duration_time": "0.033333"
  },
  {
    "pts_time": "12.633008",
    "duration_time": "0.033333"
  },
  {
    "pts_time": "12.666341",
    "duration_time": "0.033333"
  },
  {
    "pts_time": "12.699674",
    "duration_time": "0.033333"
  },
  {
    "pts_time": "12.733008",
    "duration_time": "0.033333"
  },
  {
    "pts_time": "12.766341",
    "duration_time": "0.033333"
  },
  {
    "pts_time": "12.799674",
    "duration_time": "0.033333"
  },
  {
    "pts_time": "12.833008",
    "duration_time": "0.033333"
  },
  {
    "pts_time": "12.866341",
    "duration_time": "0.033333"
  },
  {
    "pts_time": "12.899674",
    "duration_time": "0.033333"
  },
  {
    "pts_time": "12.933008",
    "duration_time": "0.033333"
  },
  {
    "pts_time": "12.966341",
    "duration_time": "0.033333"
  },
  {
    "pts_time": "12.999674",
    "duration_time": "0.033333"
  },
  {
    "pts_time": "13.033008",
    "duration_time": "0.033333"
  },
  {
    "pts_time": "13.066341",
    "duration_time": "0.033333"
  },
  {
    "pts_time": "13.099674",
    "duration_time": "0.033333"
  },
  {
    "pts_time": "13.133008",
    "duration_time": "0.033333"
  },
  {
    "pts_time": "13.166341",
    "duration_time": "0.033333"
  },
  {
    "pts_time": "13.199674",
    "duration_time": "0.033333"
  },
  {
    "pts_time": "13.233008",
    "duration_time": "0.033333"
  },
  {
    "pts_time": "13.266341",
    "duration_time": "0.033333"
  },
  {
    "pts_time": "13.299674",
    "duration_time": "0.033333"
  },
  {
    "pts_time": "13.333008",
    "duration_time": "0.033333"
  },
  {
    "pts_time": "13.366341",
    "duration_time": "0.033333"
  },
  {
    "pts_time": "13.399674",
    "duration_time": "0.033333"
  },
  {
    "pts_time": "13.433008",
    "duration_time": "0.033333"
  },
  {
    "pts_time": "13.466341",
    "duration_time": "0.033333"
  },
  {
    "pts_time": "13.499674",
    "duration_time": "0.033333"
  },
  {
    "pts_time": "13.533008",
    "duration_time": "0.033333"
  },
  {
    "pts_time": "13.566341",
    "duration_time": "0.033333"
  },
  {
    "pts_time": "13.599674",
    "duration_time": "0.033333"
  },
  {
    "pts_time": "13.633008",
    "duration_time": "0.033333"
  },
  {
    "pts_time": "13.666341",
    "duration_time": "0.033333"
  },
  {
    "pts_time": "13.699674",
    "duration_time": "0.033333"
  },
  {
    "pts_time": "13.733008",
    "duration_time": "0.033333"
  },
  {
    "pts_time": "13.766341",
    "duration_time": "0.033333"
  },
  {
    "pts_time": "13.799674",
    "duration_time": "0.033333"
  },
  {
    "pts_time": "13.833008",
    "duration_time": "0.033333"
  },
  {
    "pts_time": "13.866341",
    "duration_time": "0.033333"
  },
  {
    "pts_time": "13.899674",
    "duration_time": "0.033333"
  },
  {
    "pts_time": "13.933008",
    "duration_time": "0.033333"
  },
  {
    "pts_time": "13.966341",
    "duration_time": "0.033333"
  },
  {
    "pts_time": "13.999674",
    "duration_time": "0.033333"
  },
  {
    "pts_time": "14.033008",
    "duration_time": "0.033333"
  },
  {
    "pts_time": "14.066341",
    "duration_time": "0.033333"
  },
  {
    "pts_time": "14.099674",
    "duration_time": "0.033333"
  },
  {
    "pts_time": "14.133008",
    "duration_time": "0.033333"
  },
  {
    "pts_time": "14.166341",
    "duration_time": "0.033333"
  },
  {
    "pts_time": "14.199674",
    "duration_time": "0.033333"
  },
  {
    "pts_time": "14.233008",
    "duration_time": "0.033333"
  },
  {
    "pts_time": "14.266341",
    "duration_time": "0.033333"
  },
  {
    "pts_time": "14.299674",
    "duration_time": "0.033333"
  },
  {
    "pts_time": "14.333008",
    "duration_time": "0.033333"
  },
  {
    "pts_time": "14.366341",
    "duration_time": "0.033333"
  },
  {
    "pts_time": "14.399674",
    "duration_time": "0.033333"
  },
  {
    "pts_time": "14.433008",
    "duration_time": "0.033333"
  },
  {
    "pts_time": "14.466341",
    "duration_time": "0.033333"
  },
  {
    "pts_time": "14.499674",
    "duration_time": "0.033333"
  },
  {
    "pts_time": "14.533008",
    "duration_time": "0.033333"
  },
  {
    "pts_time": "14.566341",
    "duration_time": "0.033333"
  },
  {
    "pts_time": "14.599674",
    "duration_time": "0.033333"
  },
  {
    "pts_time": "14.633008",
    "duration_time": "0.033333"
  },
  {
    "pts_time": "14.666341",
    "duration_time": "0.033333"
  },
  {
    "pts_time": "14.699674",
    "duration_time": "0.033333"
  },
  {
    "pts_time": "14.733008",
    "duration_time": "0.033333"
  },
  {
    "pts_time": "14.766341",
    "duration_time": "0.033333"
  },
  {
    "pts_time": "14.799674",
    "duration_time": "0.033333"
  },
  {
    "pts_time": "14.833008",
    "duration_time": "0.033333"
  },
  {
    "pts_time": "14.866341",
    "duration_time": "0.033333"
  },
  {
    "pts_time": "14.899674",
    "duration_time": "0.033333"
  },
  {
    "pts_time": "14.933008",
    "duration_time": "0.033333"
  },
  {
    "pts_time": "14.966341",
    "duration_time": "0.033333"
  },
  {
    "pts_time": "14.999674",
    "duration_time": "0.033333"
  },
  {
    "pts_time": "15.033008",
    "duration_time": "0.033333"
  },
  {
    "pts_time": "15.066341",
    "duration_time": "0.033333"
  },
  {
    "pts_time": "15.099674",
    "duration_time": "0.033333"
  },
  {
    "pts_time": "15.133008",
    "duration_time": "0.033333"
  },
  {
    "pts_time": "15.166341",
    "duration_time": "0.033333"
  },
  {
    "pts_time": "15.199674",
    "duration_time": "0.033333"
  },
  {
    "pts_time": "15.233008",
    "duration_time": "0.033333"
  },
  {
    "pts_time": "15.266341",
    "duration_time": "0.033333"
  },
  {
    "pts_time": "15.299674",
    "duration_time": "0.033333"
  },
  {
    "pts_time": "15.333008",
    "duration_time": "0.033333"
  },
  {
    "pts_time": "15.366341",
    "duration_time": "0.033333"
  },
  {
    "pts_time": "15.399674",
    "duration_time": "0.033333"
  },
  {
    "pts_time": "15.433008",
    "duration_time": "0.033333"
  },
  {
    "pts_time": "15.466341",
    "duration_time": "0.033333"
  },
  {
    "pts_time": "15.499674",
    "duration_time": "0.033333"
  },
  {
    "pts_time": "15.533008",
    "duration_time": "0.033333"
  },
  {
    "pts_time": "15.566341",
    "duration_time": "0.033333"
  },
  {
    "pts_time": "15.599674",
    "duration_time": "0.033333"
  },
  {
    "pts_time": "15.633008",
    "duration_time": "0.033333"
  },
  {
    "pts_time": "15.666341",
    "duration_time": "0.033333"
  },
  {
    "pts_time": "15.699674",
    "duration_time": "0.033333"
  },
  {
    "pts_time": "15.733008",
    "duration_time": "0.033333"
  },
  {
    "pts_time": "15.766341",
    "duration_time": "0.033333"
  },
  {
    "pts_time": "15.799674",
    "duration_time": "0.033333"
  },
  {
    "pts_time": "15.833008",
    "duration_time": "0.033333"
  },
  {
    "pts_time": "15.866341",
    "duration_time": "0.033333"
  },
  {
    "pts_time": "15.899674",
    "duration_time": "0.033333"
  },
  {
    "pts_time": "15.933008",
    "duration_time": "0.033333"
  },
  {
    "pts_time": "15.966341",
    "duration_time": "0.033333"
  },
  {
    "pts_time": "15.999674",
    "duration_time": "0.033333"
  },
  {
    "pts_time": "16.033008",
    "duration_time": "0.033333"
  },
  {
    "pts_time": "16.066341",
    "duration_time": "0.033333"
  },
  {
    "pts_time": "16.099674",
    "duration_time": "0.033333"
  },
  {
    "pts_time": "16.133008",
    "duration_time": "0.033333"
  },
  {
    "pts_time": "16.166341",
    "duration_time": "0.033333"
  },
  {
    "pts_time": "16.199674",
    "duration_time": "0.033333"
  },
  {
    "pts_time": "16.233008",
    "duration_time": "0.033333"
  },
  {
    "pts_time": "16.266341",
    "duration_time": "0.033333"
  },
  {
    "pts_time": "16.299674",
    "duration_time": "0.033333"
  },
  {
    "pts_time": "16.333008",
    "duration_time": "0.033333"
  },
  {
    "pts_time": "16.366341",
    "duration_time": "0.033333"
  },
  {
    "pts_time": "16.399674",
    "duration_time": "0.033333"
  },
  {
    "pts_time": "16.433008",
    "duration_time": "0.033333"
  },
  {
    "pts_time": "16.466341",
    "duration_time": "0.033333"
  },
  {
    "pts_time": "16.499674",
    "duration_time": "0.033333"
  },
  {
    "pts_time": "16.533008",
    "duration_time": "0.033333"
  },
  {
    "pts_time": "16.566341",
    "duration_time": "0.033333"
  },
  {
    "pts_time": "16.599674",
    "duration_time": "0.033333"
  },
  {
    "pts_time": "16.633008",
    "duration_time": "0.033333"
  },
  {
    "pts_time": "16.666341",
    "duration_time": "0.033333"
  },
  {
    "pts_time": "16.699674",
    "duration_time": "0.033333"
  },
  {
    "pts_time": "16.733008",
    "duration_time": "0.033333"
  },
  {
    "pts_time": "16.766341",
    "duration_time": "0.033333"
  },
  {
    "pts_time": "16.799674",
    "duration_time": "0.033333"
  },
  {
    "pts_time": "16.833008",
    "duration_time": "0.033333"
  },
  {
    "pts_time": "16.866341",
    "duration_time": "0.033333"
  },
  {
    "pts_time": "16.899674",
    "duration_time": "0.033333"
  },
  {
    "pts_time": "16.933008",
    "duration_time": "0.033333"
  },
  {
    "pts_time": "16.966341",
    "duration_time": "0.033333"
  },
  {
    "pts_time": "16.999674",
    "duration_time": "0.033333"
  },
  {
    "pts_time": "17.033008",
    "duration_time": "0.033333"
  },
  {
    "pts_time": "17.066341",
    "duration_time": "0.033333"
  },
  {
    "pts_time": "17.099674",
    "duration_time": "0.033333"
  },
  {
    "pts_time": "17.133008",
    "duration_time": "0.033333"
  },
  {
    "pts_time": "17.166341",
    "duration_time": "0.033333"
  },
  {
    "pts_time": "17.199674",
    "duration_time": "0.033333"
  },
  {
    "pts_time": "17.233008",
    "duration_time": "0.033333"
  },
  {
    "pts_time": "17.266341",
    "duration_time": "0.033333"
  },
  {
    "pts_time": "17.299674",
    "duration_time": "0.033333"
  },
  {
    "pts_time": "17.333008",
    "duration_time": "0.033333"
  },
  {
    "pts_time": "17.366341",
    "duration_time": "0.033333"
  },
  {
    "pts_time": "17.399674",
    "duration_time": "0.033333"
  },
  {
    "pts_time": "17.433008",
    "duration_time": "0.033333"
  },
  {
    "pts_time": "17.466341",
    "duration_time": "0.033333"
  },
  {
    "pts_time": "17.499674",
    "duration_time": "0.033333"
  },
  {
    "pts_time": "17.533008",
    "duration_time": "0.033333"
  },
  {
    "pts_time": "17.566341",
    "duration_time": "0.033333"
  },
  {
    "pts_time": "17.599674",
    "duration_time": "0.033333"
  },
  {
    "pts_time": "17.633008",
    "duration_time": "0.033333"
  },
  {
    "pts_time": "17.666341",
    "duration_time": "0.033333"
  },
  {
    "pts_time": "17.699674",
    "duration_time": "0.033333"
  },
  {
    "pts_time": "17.733008",
    "duration_time": "0.033333"
  },
  {
    "pts_time": "17.766341",
    "duration_time": "0.033333"
  },
  {
    "pts_time": "17.799674",
    "duration_time": "0.033333"
  },
  {
    "pts_time": "17.833008",
    "duration_time": "0.033333"
  },
  {
    "pts_time": "17.866341",
    "duration_time": "0.033333"
  },
  {
    "pts_time": "17.899674",
    "duration_time": "0.033333"
  },
  {
    "pts_time": "17.933008",
    "duration_time": "0.033333"
  },
  {
    "pts_time": "17.966341",
    "duration_time": "0.033333"
  },
  {
    "pts_time": "17.999674",
    "duration_time": "0.033333"
  },
  {
    "pts_time": "18.033008",
    "duration_time": "0.033333"
  },
  {
    "pts_time": "18.066341",
    "duration_time": "0.033333"
  },
  {
    "pts_time": "18.099674",
    "duration_time": "0.033333"
  },
  {
    "pts_time": "18.133008",
    "duration_time": "0.033333"
  },
  {
    "pts_time": "18.166341",
    "duration_time": "0.033333"
  },
  {
    "pts_time": "18.199674",
    "duration_time": "0.033333"
  },
  {
    "pts_time": "18.233008",
    "duration_time": "0.033333"
  },
  {
    "pts_time": "18.266341",
    "duration_time": "0.033333"
  },
  {
    "pts_time": "18.299674",
    "duration_time": "0.033333"
  },
  {
    "pts_time": "18.333008",
    "duration_time": "0.033333"
  },
  {
    "pts_time": "18.366341",
    "duration_time": "0.033333"
  },
  {
    "pts_time": "18.399674",
    "duration_time": "0.033333"
  },
  {
    "pts_time": "18.433008",
    "duration_time": "0.033333"
  },
  {
    "pts_time": "18.466341",
    "duration_time": "0.033333"
  },
  {
    "pts_time": "18.499674",
    "duration_time": "0.033333"
  },
  {
    "pts_time": "18.533008",
    "duration_time": "0.033333"
  },
  {
    "pts_time": "18.566341",
    "duration_time": "0.033333"
  },
  {
    "pts_time": "18.599674",
    "duration_time": "0.033333"
  },
  {
    "pts_time": "18.633008",
    "duration_time": "0.033333"
  },
  {
    "pts_time": "18.666341",
    "duration_time": "0.033333"
  },
  {
    "pts_time": "18.699674",
    "duration_time": "0.033333"
  },
  {
    "pts_time": "18.733008",
    "duration_time": "0.033333"
  },
  {
    "pts_time": "18.766341",
    "duration_time": "0.033333"
  },
  {
    "pts_time": "18.799674",
    "duration_time": "0.033333"
  },
  {
    "pts_time": "18.833008",
    "duration_time": "0.033333"
  },
  {
    "pts_time": "18.866341",
    "duration_time": "0.033333"
  },
  {
    "pts_time": "18.899674",
    "duration_time": "0.033333"
  },
  {
    "pts_time": "18.933008",
    "duration_time": "0.033333"
  },
  {
    "pts_time": "18.966341",
    "duration_time": "0.033333"
  },
  {
    "pts_time": "18.999674",
    "duration_time": "0.033333"
  },
  {
    "pts_time": "19.033008",
    "duration_time": "0.033333"
  },
  {
    "pts_time": "19.066341",
    "duration_time": "0.033333"
  },
  {
    "pts_time": "19.099674",
    "duration_time": "0.033333"
  },
  {
    "pts_time": "19.133008",
    "duration_time": "0.033333"
  },
  {
    "pts_time": "19.166341",
    "duration_time": "0.033333"
  },
  {
    "pts_time": "19.199674",
    "duration_time": "0.033333"
  },
  {
    "pts_time": "19.233008",
    "duration_time": "0.033333"
  },
  {
    "pts_time": "19.266341",
    "duration_time": "0.033333"
  },
  {
    "pts_time": "19.299674",
    "duration_time": "0.033333"
  },
  {
    "pts_time": "19.333008",
    "duration_time": "0.033333"
  },
  {
    "pts_time": "19.366341",
    "duration_time": "0.033333"
  },
  {
    "pts_time": "19.399674",
    "duration_time": "0.033333"
  },
  {
    "pts_time": "19.433008",
    "duration_time": "0.033333"
  },
  {
    "pts_time": "19.466341",
    "duration_time": "0.033333"
  },
  {
    "pts_time": "19.499674",
    "duration_time": "0.033333"
  },
  {
    "pts_time": "19.533008",
    "duration_time": "0.033333"
  },
  {
    "pts_time": "19.566341",
    "duration_time": "0.033333"
  },
  {
    "pts_time": "19.599674",
    "duration_time": "0.033333"
  },
  {
    "pts_time": "19.633008",
    "duration_time": "0.033333"
  },
  {
    "pts_time": "19.666341",
    "duration_time": "0.033333"
  },
  {
    "pts_time": "19.699674",
    "duration_time": "0.033333"
  },
  {
    "pts_time": "19.733008",
    "duration_time": "0.033333"
  },
  {
    "pts_time": "19.766341",
    "duration_time": "0.033333"
  },
  {
    "pts_time": "19.799674",
    "duration_time": "0.033333"
  },
  {
    "pts_time": "19.833008",
    "duration_time": "0.033333"
  },
  {
    "pts_time": "19.866341",
    "duration_time": "0.033333"
  },
  {
    "pts_time": "19.899674",
    "duration_time": "0.033333"
  },
  {
    "pts_time": "19.933008",
    "duration_time": "0.033333"
  },
  {
    "pts_time": "19.966341",
    "duration_time": "0.033333"
  },
  {
    "pts_time": "19.999674",
    "duration_time": "0.033333"
  },
  {
    "pts_time": "20.033008",
    "duration_time": "0.033333"
  }
]
